<svg viewBox="0 0 375 760" xmlns="http://www.w3.org/2000/svg">
  <defs>
    <linearGradient id="ckBg" x1="0" y1="0" x2="0" y2="1">
      <stop offset="0" stop-color="#eaf2ff"/>
      <stop offset="1" stop-color="#f6faff"/>
    </linearGradient>
  </defs>
  <rect width="375" height="760" rx="36" fill="#0d1424"/>
  <rect x="6" y="6" width="363" height="748" rx="30" fill="url(#ckBg)"/>

  <rect x="140" y="20" width="95" height="18" rx="9" fill="#0d1424"/>

  <text x="32" y="86" font-family="sans-serif" font-size="13" fill="#7a8aa3">안녕하세요, 재환님</text>
  <text x="32" y="114" font-family="sans-serif" font-size="24" font-weight="700" fill="#16233f">오늘의 건강 리포트</text>

  <rect x="32" y="140" width="311" height="118" rx="18" fill="#4f7bf7"/>
  <circle cx="62" cy="176" r="18" fill="#ffffff" fill-opacity="0.25"/>
  <path d="M54 176l6 6 12-14" stroke="#fff" stroke-width="3" fill="none" stroke-linecap="round" stroke-linejoin="round"/>
  <text x="90" y="172" font-family="sans-serif" font-size="13" fill="#dbe6ff">AI 총평</text>
  <text x="90" y="196" font-family="sans-serif" font-size="15" font-weight="700" fill="#ffffff">전반적으로 양호해요</text>
  <text x="32" y="228" font-family="sans-serif" font-size="12" fill="#e4ecff">혈압·혈당 수치가 지난달보다 안정적으로</text>
  <text x="32" y="245" font-family="sans-serif" font-size="12" fill="#e4ecff">유지되고 있어요. 꾸준히 관리해봐요.</text>

  <rect x="32" y="276" width="148" height="128" rx="16" fill="#ffffff" stroke="#e1e9f7"/>
  <text x="48" y="302" font-family="sans-serif" font-size="12" fill="#7a8aa3">혈압</text>
  <text x="48" y="328" font-family="sans-serif" font-size="20" font-weight="700" fill="#16233f">118/76</text>
  <polyline points="48,380 78,368 104,374 132,352 160,360" fill="none" stroke="#4f7bf7" stroke-width="3" stroke-linecap="round" stroke-linejoin="round"/>

  <rect x="195" y="276" width="148" height="128" rx="16" fill="#ffffff" stroke="#e1e9f7"/>
  <text x="211" y="302" font-family="sans-serif" font-size="12" fill="#7a8aa3">혈당</text>
  <text x="211" y="328" font-family="sans-serif" font-size="20" font-weight="700" fill="#16233f">96 mg/dL</text>
  <rect x="211" y="352" width="14" height="30" rx="3" fill="#9fc0ff"/>
  <rect x="233" y="340" width="14" height="42" rx="3" fill="#4f7bf7"/>
  <rect x="255" y="358" width="14" height="24" rx="3" fill="#9fc0ff"/>
  <rect x="277" y="346" width="14" height="36" rx="3" fill="#4f7bf7"/>
  <rect x="299" y="364" width="14" height="18" rx="3" fill="#9fc0ff"/>

  <text x="32" y="436" font-family="sans-serif" font-size="14" font-weight="700" fill="#16233f">생활 기록</text>
  <rect x="32" y="452" width="311" height="64" rx="14" fill="#ffffff" stroke="#e1e9f7"/>
  <circle cx="60" cy="484" r="14" fill="#eaf2ff"/>
  <text x="60" y="489" font-family="sans-serif" font-size="14" text-anchor="middle">💧</text>
  <text x="86" y="480" font-family="sans-serif" font-size="12" font-weight="700" fill="#16233f">물 섭취량</text>
  <text x="86" y="497" font-family="sans-serif" font-size="11" fill="#7a8aa3">1.4L / 2L 목표</text>
  <rect x="240" y="476" width="80" height="10" rx="5" fill="#eaf2ff"/>
  <rect x="240" y="476" width="56" height="10" rx="5" fill="#4f7bf7"/>

  <rect x="32" y="528" width="311" height="64" rx="14" fill="#ffffff" stroke="#e1e9f7"/>
  <circle cx="60" cy="560" r="14" fill="#eaf2ff"/>
  <text x="60" y="565" font-family="sans-serif" font-size="14" text-anchor="middle">😴</text>
  <text x="86" y="556" font-family="sans-serif" font-size="12" font-weight="700" fill="#16233f">수면 시간</text>
  <text x="86" y="573" font-family="sans-serif" font-size="11" fill="#7a8aa3">6시간 40분</text>

  <rect x="24" y="674" width="327" height="66" rx="22" fill="#ffffff" stroke="#e1e9f7"/>
  <g font-family="sans-serif" font-size="10" fill="#4f7bf7" text-anchor="middle">
    <circle cx="75" cy="707" r="4"/>
    <text x="75" y="726">홈</text>
    <text x="150" y="726" fill="#9aa8bf">검진</text>
    <text x="225" y="726" fill="#9aa8bf">기록</text>
    <text x="300" y="726" fill="#9aa8bf">MY</text>
  </g>
</svg>
