<svg viewBox="0 0 700 460" xmlns="http://www.w3.org/2000/svg">
  <rect width="700" height="460" rx="16" fill="#0a0f1e"/>
  <rect x="0" y="0" width="700" height="40" rx="16" fill="#111a2e"/>
  <rect x="0" y="24" width="700" height="16" fill="#111a2e"/>
  <circle cx="24" cy="20" r="6" fill="#ff5f57"/>
  <circle cx="46" cy="20" r="6" fill="#febc2e"/>
  <circle cx="68" cy="20" r="6" fill="#28c840"/>
  <text x="350" y="25" font-family="sans-serif" font-size="12" fill="#7d8aad" text-anchor="middle">진동 센서 모니터링 대시보드</text>

  <text x="24" y="70" font-family="sans-serif" font-size="13" fill="#e4e9f7" font-weight="700">실시간 FFT 스펙트럼</text>
  <rect x="24" y="82" width="420" height="180" rx="10" fill="#111a2e" stroke="#1f2a45"/>
  <g stroke="#1f2a45">
    <line x1="24" y1="127" x2="444" y2="127"/>
    <line x1="24" y1="172" x2="444" y2="172"/>
    <line x1="24" y1="217" x2="444" y2="217"/>
  </g>
  <polyline points="34,240 60,230 86,244 112,190 138,236 164,150 190,220 216,110 242,200 268,170 294,60 320,190 346,140 372,210 398,180 424,230"
    fill="none" stroke="#38bdf8" stroke-width="2.5" stroke-linecap="round" stroke-linejoin="round"/>
  <text x="34" y="256" font-family="sans-serif" font-size="9" fill="#5c6a8f">0Hz</text>
  <text x="420" y="256" font-family="sans-serif" font-size="9" fill="#5c6a8f">500Hz</text>

  <text x="24" y="300" font-family="sans-serif" font-size="13" fill="#e4e9f7" font-weight="700">주파수별 진동 세기</text>
  <g>
    <rect x="24" y="316" width="26" height="60" rx="3" fill="#38bdf8"/>
    <rect x="58" y="336" width="26" height="40" rx="3" fill="#38bdf8"/>
    <rect x="92" y="300" width="26" height="76" rx="3" fill="#f87171"/>
    <rect x="126" y="346" width="26" height="30" rx="3" fill="#38bdf8"/>
    <rect x="160" y="326" width="26" height="50" rx="3" fill="#38bdf8"/>
    <rect x="194" y="356" width="26" height="20" rx="3" fill="#38bdf8"/>
    <rect x="228" y="316" width="26" height="60" rx="3" fill="#38bdf8"/>
    <rect x="262" y="340" width="26" height="36" rx="3" fill="#38bdf8"/>
  </g>
  <text x="24" y="392" font-family="sans-serif" font-size="9" fill="#5c6a8f">위험 임계값 초과 구간은 붉은색으로 표시됩니다</text>

  <rect x="468" y="60" width="208" height="360" rx="12" fill="#111a2e" stroke="#1f2a45"/>
  <text x="488" y="88" font-family="sans-serif" font-size="12" fill="#e4e9f7" font-weight="700">센서 상태</text>

  <g font-family="sans-serif" font-size="11">
    <circle cx="496" cy="112" r="5" fill="#4ade80"/>
    <text x="510" y="116" fill="#e4e9f7">센서 A-01</text>
    <text x="656" y="116" fill="#4ade80" text-anchor="end">정상</text>

    <circle cx="496" cy="144" r="5" fill="#4ade80"/>
    <text x="510" y="148" fill="#e4e9f7">센서 A-02</text>
    <text x="656" y="148" fill="#4ade80" text-anchor="end">정상</text>

    <circle cx="496" cy="176" r="5" fill="#facc15"/>
    <text x="510" y="180" fill="#e4e9f7">센서 B-01</text>
    <text x="656" y="180" fill="#facc15" text-anchor="end">주의</text>

    <circle cx="496" cy="208" r="5" fill="#f87171"/>
    <text x="510" y="212" fill="#e4e9f7">센서 B-02</text>
    <text x="656" y="212" fill="#f87171" text-anchor="end">경고</text>

    <circle cx="496" cy="240" r="5" fill="#4ade80"/>
    <text x="510" y="244" fill="#e4e9f7">센서 C-01</text>
    <text x="656" y="244" fill="#4ade80" text-anchor="end">정상</text>
  </g>

  <line x1="488" y1="268" x2="656" y2="268" stroke="#1f2a45"/>
  <text x="488" y="296" font-family="sans-serif" font-size="11" fill="#7d8aad">MQTT 수신 상태</text>
  <text x="488" y="320" font-family="sans-serif" font-size="18" fill="#38bdf8" font-weight="700">연결됨 · 24ms</text>

  <rect x="488" y="340" width="168" height="60" rx="8" fill="#0a0f1e" stroke="#1f2a45"/>
  <text x="500" y="362" font-family="sans-serif" font-size="10" fill="#7d8aad">최근 경보</text>
  <text x="500" y="382" font-family="sans-serif" font-size="11" fill="#f87171">B-02 임계 초과 · 3분 전</text>
</svg>
